HIERARCHY
ROOT joint_0
{
	OFFSET 0.000000 0.000000 0.000000
	CHANNELS 6 Xposition Yposition Zposition Zrotation Yrotation Xrotation 
	JOINT joint_1
	{
		OFFSET 0.511002 1.944000 108.288940
		CHANNELS 3 Zrotation Yrotation Xrotation
		JOINT joint_2
		{
			OFFSET -9.074005 1.512993 98.440063
			CHANNELS 3 Zrotation Yrotation Xrotation
			JOINT joint_3
			{
				OFFSET -8.590996 1.815002 98.366943
				CHANNELS 3 Zrotation Yrotation Xrotation
				JOINT joint_4
				{
					OFFSET 2.489998 3.531998 136.462036
					CHANNELS 3 Zrotation Yrotation Xrotation
					JOINT joint_5
					{
						OFFSET 22.708000 2.955002 80.357056
						CHANNELS 3 Zrotation Yrotation Xrotation
						End Site
						{
							OFFSET 0.000000 0.000000 0.000000
						}
					}
				}
				JOINT joint_6
				{
					OFFSET 2.860001 -27.684998 77.234009
					CHANNELS 3 Zrotation Yrotation Xrotation
					JOINT joint_7
					{
						OFFSET 5.449997 -131.244003 -18.851929
						CHANNELS 3 Zrotation Yrotation Xrotation
						JOINT joint_8
						{
							OFFSET 35.757000 -24.661995 -264.074097
							CHANNELS 3 Zrotation Yrotation Xrotation
							JOINT joint_9
							{
								OFFSET 49.392001 -1.747002 -239.960938
								CHANNELS 3 Zrotation Yrotation Xrotation
								End Site
								{
									OFFSET 0.000000 0.000000 0.000000
								}
							}
						}
					}
				}
				JOINT joint_10
				{
					OFFSET -0.127998 31.625000 75.753052
					CHANNELS 3 Zrotation Yrotation Xrotation
					JOINT joint_11
					{
						OFFSET -5.618004 131.132996 -19.557007
						CHANNELS 3 Zrotation Yrotation Xrotation
						JOINT joint_12
						{
							OFFSET 46.488998 30.127991 -261.826050
							CHANNELS 3 Zrotation Yrotation Xrotation
							JOINT joint_13
							{
								OFFSET 66.021003 0.474030 -235.934937
								CHANNELS 3 Zrotation Yrotation Xrotation
								End Site
								{
									OFFSET 0.000000 0.000000 0.000000
								}
							}
						}
					}
				}
			}
		}
	}
	JOINT joint_14
	{
		OFFSET 15.887001 -78.871004 -94.561035
		CHANNELS 3 Zrotation Yrotation Xrotation
		JOINT joint_15
		{
			OFFSET -4.133003 6.714001 -473.615967
			CHANNELS 3 Zrotation Yrotation Xrotation
			JOINT joint_16
			{
				OFFSET -19.541000 5.340000 -399.613007
				CHANNELS 3 Zrotation Yrotation Xrotation
				JOINT joint_17
				{
					OFFSET 164.317001 41.657999 -73.195000
					CHANNELS 3 Zrotation Yrotation Xrotation
					End Site
					{
						OFFSET 0.000000 0.000000 0.000000
					}
				}
			}
		}
	}
	JOINT joint_18
	{
		OFFSET 6.513000 77.960991 -96.406982
		CHANNELS 3 Zrotation Yrotation Xrotation
		JOINT joint_19
		{
			OFFSET -10.660004 -8.518997 -473.485016
			CHANNELS 3 Zrotation Yrotation Xrotation
			JOINT joint_20
			{
				OFFSET -36.967995 -11.098999 -398.260010
				CHANNELS 3 Zrotation Yrotation Xrotation
				JOINT joint_21
				{
					OFFSET 166.067997 30.363998 -74.785000
					CHANNELS 3 Zrotation Yrotation Xrotation
					End Site
					{
						OFFSET 0.000000 0.000000 0.000000
					}
				}
			}
		}
	}
}
MOTION
Frames: 9
Frame Time: 0.016667
-96.900000 92.332000 1060.483030 2.435767 2.405280 0.393813 0.459109 3.877873 1.992363 0.342466 -0.558157 -0.473523 0.387669 0.825329 0.287329 0.137204 -1.909208 -0.221134 0.000000 0.000000 0.000000 0.393271 -0.765390 -1.014155 -0.951154 -0.686408 -4.145638 -0.064539 -4.597656 -0.374120 0.000000 0.000000 0.000000 -2.099784 0.510011 -1.911017 1.071860 1.111716 1.213570 0.929841 -3.582353 3.391751 0.000000 0.000000 0.000000 -3.303420 -2.475839 -1.816571 -3.292988 -0.077683 -0.372303 -3.251000 -0.338883 -1.356710 0.000000 0.000000 0.000000 -1.356233 -5.817853 2.949588 -1.419661 1.099311 -0.891499 -1.441521 2.334136 -1.073377 0.000000 0.000000 0.000000 
-95.558000 92.507000 1060.458980 2.463474 2.539841 0.392027 0.458212 3.888213 2.012700 0.338680 -0.560812 -0.477442 0.384356 0.830216 0.290198 0.149790 -2.022163 -0.249713 0.000000 0.000000 0.000000 0.390443 -0.743998 -1.005663 -0.957295 -0.665712 -4.178091 -0.062238 -4.595891 -0.361563 0.000000 0.000000 0.000000 -2.095629 0.517982 -1.947870 1.076921 1.122930 1.248719 0.926912 -3.570576 3.380074 0.000000 0.000000 0.000000 -3.310921 -2.512636 -1.835572 -3.300642 -0.117332 -0.341095 -3.258513 -0.423366 -1.338617 0.000000 0.000000 0.000000 -1.365025 -5.932270 2.949235 -1.432680 1.215508 -0.903759 -1.450388 2.165197 -1.046442 0.000000 0.000000 0.000000 
-94.023000 92.724000 1060.415040 2.478101 2.684166 0.390231 0.463436 3.899690 2.032585 0.340858 -0.562659 -0.481505 0.386945 0.835170 0.292109 0.163122 -2.136440 -0.280623 0.000000 0.000000 0.000000 0.390152 -0.719374 -0.998559 -0.964540 -0.640955 -4.206047 -0.058513 -4.611978 -0.341649 0.000000 0.000000 0.000000 -2.088877 0.525872 -1.991798 1.082198 1.134310 1.290551 0.923271 -3.552558 3.365775 0.000000 0.000000 0.000000 -3.313373 -2.560564 -1.859859 -3.302756 -0.127129 -0.306887 -3.261971 -0.552971 -1.307276 0.000000 0.000000 0.000000 -1.367833 -6.069563 2.943162 -1.441450 1.390156 -0.912543 -1.452839 1.947994 -1.007797 0.000000 0.000000 0.000000 
-92.277000 92.984000 1060.352050 2.485448 2.836209 0.389079 0.473120 3.915334 2.051408 0.347606 -0.567242 -0.485267 0.394009 0.842414 0.294091 0.177401 -2.255980 -0.314029 0.000000 0.000000 0.000000 0.388090 -0.692607 -0.991685 -0.972608 -0.614105 -4.233390 -0.053009 -4.640608 -0.312723 0.000000 0.000000 0.000000 -2.083240 0.535193 -2.042412 1.088222 1.147967 1.338709 0.919068 -3.531161 3.349350 0.000000 0.000000 0.000000 -3.312840 -2.613071 -1.889088 -3.301506 -0.114217 -0.271816 -3.263323 -0.719765 -1.265559 0.000000 0.000000 0.000000 -1.367103 -6.220960 2.931951 -1.447861 1.609849 -0.919730 -1.451282 1.689718 -0.959837 0.000000 0.000000 0.000000 
-90.188000 93.313000 1060.265010 2.486678 2.990222 0.390066 0.485719 3.934868 2.069697 0.356972 -0.570903 -0.489635 0.403693 0.848892 0.295344 0.192043 -2.380924 -0.347858 0.000000 0.000000 0.000000 0.384869 -0.662846 -0.978461 -0.982253 -0.584768 -4.268034 -0.044069 -4.683528 -0.266780 0.000000 0.000000 0.000000 -2.073478 0.552750 -2.100827 1.095933 1.170088 1.393451 0.914176 -3.509963 3.330454 0.000000 0.000000 0.000000 -3.310491 -2.663160 -1.920988 -3.297709 -0.064954 -0.248826 -3.264288 -0.926442 -1.213535 0.000000 0.000000 0.000000 -1.363800 -6.360819 2.913999 -1.451761 1.850016 -0.926932 -1.446432 1.399788 -0.904614 0.000000 0.000000 0.000000 
-87.757000 93.709000 1060.151000 2.478851 3.137412 0.394852 0.500448 3.965255 2.083745 0.368832 -0.577117 -0.493492 0.415647 0.860075 0.296227 0.207230 -2.512319 -0.382609 0.000000 0.000000 0.000000 0.383069 -0.632488 -0.958573 -0.993873 -0.555118 -4.314320 -0.030108 -4.746340 -0.195961 0.000000 0.000000 0.000000 -2.055560 0.577465 -2.166353 1.105360 1.199016 1.456326 0.908018 -3.490470 3.307069 0.000000 0.000000 0.000000 -3.305496 -2.705088 -1.953407 -3.290381 0.026976 -0.247416 -3.264487 -1.173066 -1.151010 0.000000 0.000000 0.000000 -1.357058 -6.478575 2.887277 -1.452055 2.108941 -0.934486 -1.437333 1.080585 -0.842134 0.000000 0.000000 0.000000 
-84.982000 94.173000 1060.011960 2.465014 3.286667 0.402128 0.517719 3.998745 2.096202 0.382939 -0.581492 -0.498640 0.430120 0.869985 0.298472 0.223178 -2.648893 -0.419158 0.000000 0.000000 0.000000 0.381202 -0.599168 -0.933448 -1.007112 -0.522792 -4.367725 -0.012771 -4.823044 -0.108194 0.000000 0.000000 0.000000 -2.033947 0.610608 -2.241758 1.116787 1.236870 1.527094 0.901320 -3.471478 3.281710 0.000000 0.000000 0.000000 -3.298576 -2.744714 -1.989029 -3.280401 0.155080 -0.258083 -3.264185 -1.457801 -1.078562 0.000000 0.000000 0.000000 -1.347675 -6.584756 2.853547 -1.449720 2.387959 -0.942459 -1.424892 0.731907 -0.772761 0.000000 0.000000 0.000000 
-81.730000 94.728000 1059.852050 2.453166 3.458935 0.410462 0.536258 4.019284 2.110174 0.397364 -0.585501 -0.503168 0.444799 0.877496 0.299725 0.241397 -2.802500 -0.461223 0.000000 0.000000 0.000000 0.375229 -0.560796 -0.894675 -1.021130 -0.486719 -4.426667 0.005370 -4.896870 -0.016268 0.000000 0.000000 0.000000 -2.009271 0.657645 -2.331397 1.130650 1.289438 1.604525 0.895694 -3.449398 3.260086 0.000000 0.000000 0.000000 -3.292501 -2.793274 -2.033626 -3.270609 0.314614 -0.266445 -3.265460 -1.783687 -0.996335 0.000000 0.000000 0.000000 -1.337966 -6.684647 2.814889 -1.446526 2.664430 -0.951199 -1.411494 0.362021 -0.699074 0.000000 0.000000 0.000000 
-78.010000 95.362000 1059.685060 2.442097 3.652986 0.417898 0.556920 4.021312 2.126709 0.412811 -0.587062 -0.505452 0.460318 0.880256 0.299974 0.262908 -2.964472 -0.513426 0.000000 0.000000 0.000000 0.361102 -0.518366 -0.839088 -1.035308 -0.448667 -4.489597 0.023574 -4.963509 0.075917 0.000000 0.000000 0.000000 -1.983715 0.718881 -2.444179 1.148199 1.358171 1.692999 0.893611 -3.420162 3.251058 0.000000 0.000000 0.000000 -3.286185 -2.846875 -2.086586 -3.260071 0.498404 -0.268254 -3.266881 -2.141875 -0.905928 0.000000 0.000000 0.000000 -1.327680 -6.772879 2.774235 -1.441822 2.927991 -0.959649 -1.396798 -0.017202 -0.623092 0.000000 0.000000 0.000000 
